# Blender v2.67 (sub 0) OBJ File: 'nemo-keren.blend'
# www.blender.org
mtllib nemo-sirip.mtl
o Plane.002
v 4.643179 0.705856 2.250543
v 3.542416 0.705856 1.316103
v 4.845007 0.705856 -1.022212
v 3.542416 0.705856 -0.683897
v 6.327179 0.705856 -0.003276
v 3.542416 0.705856 0.335039
vt 0.404784 0.313518
vt 0.531423 0.180965
vt 0.526789 0.298416
vt 0.353424 0.275143
vt 0.347562 0.180965
vt 0.458126 0.353375
vn 0.000000 1.000000 -0.000000
usemtl UtamaMaterial
s off
f 6/1/1 5/2/1 3/3/1
f 2/4/1 1/5/1 6/1/1
f 4/6/1 6/1/1 3/3/1
f 1/5/1 5/2/1 6/1/1
o Plane.001
v 4.643179 0.705856 2.250543
v 3.542416 0.705856 1.316103
v 4.845007 0.705856 -1.022212
v 3.542416 0.705856 -0.683897
v 6.327179 0.705856 -0.003276
v 3.542416 0.705856 0.335039
usemtl None
s off
f 12//1 11//1 9//1
f 8//1 7//1 12//1
f 10//1 12//1 9//1
f 7//1 11//1 12//1
